<svg width="121" height="31" viewBox="0 0 121 31" fill="none" xmlns="http://www.w3.org/2000/svg">
<path d="M25.5855 15.6167L22.0284 5.57297C21.9879 5.45244 21.9208 5.36546 21.8269 5.31204C21.7464 5.25859 21.6525 5.23197 21.5453 5.23218C21.3041 5.23264 21.1435 5.34685 21.0635 5.57482L17.545 15.6322L15.1932 15.6367L19.0918 4.63385C19.2783 4.08406 19.5858 3.67474 20.0141 3.4059C20.4558 3.13704 20.9648 3.00206 21.541 3.00095C22.1038 2.99987 22.6066 3.13291 23.0494 3.40008C23.4921 3.66724 23.8078 4.07536 23.9965 4.62443L27.9373 15.6122L25.5855 15.6167Z" fill="#009B95"/>
<path d="M10.2074 5.54262C11.1314 5.54262 12.0346 5.81662 12.8028 6.32997C13.5711 6.84332 14.1698 7.57295 14.5233 8.4266C14.8769 9.28025 14.9693 10.2196 14.789 11.1258C14.6086 12.0319 14.1636 12.8643 13.5102 13.5176C12.8568 14.1708 12.0243 14.6156 11.1181 14.7957C10.2118 14.9759 9.27255 14.8832 8.41899 14.5295C7.56543 14.1757 6.83594 13.5768 6.32278 12.8084C5.80962 12.0401 5.53584 11.1368 5.53607 10.2129C5.53788 8.9736 6.03144 7.78573 6.90837 6.91009C7.78529 6.03444 8.97389 5.54262 10.2131 5.54262H10.2074ZM10.2131 0.000854556C8.19313 0.000854569 6.21848 0.599875 4.53891 1.72216C2.85934 2.84444 1.5503 4.43959 0.777325 6.30586C0.00434982 8.17213 -0.197838 10.2257 0.196331 12.2069C0.590499 14.1881 1.56332 16.0079 2.99177 17.4362C4.42021 18.8645 6.24013 19.8371 8.22136 20.231C10.2026 20.625 12.2561 20.4226 14.1223 19.6494C15.9885 18.8762 17.5835 17.567 18.7056 15.8873C19.8277 14.2076 20.4265 12.2329 20.4263 10.2129C20.4263 8.8717 20.1621 7.54368 19.6488 6.30463C19.1356 5.06558 18.3832 3.93976 17.4349 2.99148C16.4865 2.04319 15.3606 1.291 14.1215 0.777871C12.8823 0.264737 11.5543 0.00070474 10.2131 0.000854556Z" fill="#FF7A00"/>
<path d="M32.5785 5.54177C33.5025 5.54177 34.4057 5.81577 35.1739 6.32912C35.9422 6.84246 36.5409 7.5721 36.8944 8.42575C37.248 9.2794 37.3404 10.2187 37.1601 11.1249C36.9797 12.0311 36.5347 12.8634 35.8813 13.5167C35.2279 14.17 34.3954 14.6148 33.4892 14.7949C32.5829 14.975 31.6437 14.8823 30.7901 14.5286C29.9365 14.1749 29.207 13.5759 28.6939 12.8076C28.1807 12.0392 27.9069 11.136 27.9072 10.212C27.909 8.97374 28.4018 7.78672 29.2775 6.91124C30.1531 6.03576 31.3403 5.54328 32.5785 5.54177ZM32.5785 6.37301e-08C30.5585 -0.000225554 28.5837 0.598602 26.904 1.72075C25.2243 2.8429 23.9151 4.43796 23.1419 6.30421C22.3688 8.17047 22.1664 10.2241 22.5604 12.2053C22.9545 14.1866 23.9272 16.0065 25.3556 17.4349C26.784 18.8633 28.6039 19.8361 30.5852 20.2301C32.5665 20.6241 34.6201 20.4218 36.4863 19.6486C38.3526 18.8755 39.9476 17.5663 41.0698 15.8865C42.1919 14.2068 42.7908 12.2321 42.7905 10.212C42.7905 7.50361 41.7146 4.90615 39.7995 2.99103C37.8844 1.0759 35.2869 6.37301e-08 32.5785 6.37301e-08Z" fill="#FF7A00"/>
<path d="M24.6777 24.1099C25.6355 25.2795 26.841 26.2219 28.2072 26.869C29.5734 27.5161 31.0663 27.8518 32.578 27.8518C34.0897 27.8518 35.5826 27.5161 36.9488 26.869C38.315 26.2219 39.5205 25.2795 40.4783 24.1099" stroke="#FF7A00" stroke-width="5.0752" stroke-miterlimit="10"/>
<path d="M62.8381 12.6159C61.7282 13.7153 60.3775 14.265 58.786 14.265C57.1944 14.265 55.8437 13.7153 54.7338 12.6159C53.6344 11.4956 53.0847 10.1396 53.0847 8.54808C53.0847 6.94607 53.6344 5.59536 54.7338 4.49594C55.8437 3.38605 57.1944 2.83111 58.786 2.83111C60.3775 2.83111 61.7282 3.38605 62.8381 4.49594C63.948 5.59536 64.5029 6.94607 64.5029 8.54808C64.5029 10.1501 63.948 11.506 62.8381 12.6159ZM56.2573 11.1396C56.9274 11.8097 57.7703 12.1447 58.786 12.1447C59.8016 12.1447 60.6445 11.8097 61.3146 11.1396C61.9952 10.459 62.3355 9.59514 62.3355 8.54808C62.3355 7.50101 61.9952 6.63719 61.3146 5.95659C60.634 5.276 59.7911 4.93571 58.786 4.93571C57.7808 4.93571 56.9379 5.276 56.2573 5.95659C55.5767 6.63719 55.2364 7.50101 55.2364 8.54808C55.2364 9.59514 55.5767 10.459 56.2573 11.1396ZM71.3035 8.13972L76.8163 8.13972L76.8163 8.98785C76.8163 10.5584 76.3137 11.8306 75.3085 12.8044C74.3033 13.7782 73.005 14.265 71.4134 14.265C69.7172 14.265 68.3089 13.7153 67.1885 12.6159C66.0786 11.506 65.5237 10.1553 65.5237 8.56378C65.5237 6.96178 66.0734 5.60583 67.1728 4.49594C68.2827 3.38605 69.6544 2.83111 71.2878 2.83111C72.3034 2.83111 73.2353 3.06146 74.0835 3.52217C74.9316 3.98288 75.5965 4.60588 76.0781 5.39118L74.2248 6.45919C73.963 6.00895 73.5652 5.64248 73.0312 5.35977C72.4972 5.07706 71.9108 4.93571 71.2721 4.93571C70.2146 4.93571 69.3507 5.28124 68.6806 5.9723C68.0105 6.64242 67.6754 7.50625 67.6754 8.56378C67.6754 9.60038 68.0157 10.459 68.6963 11.1396C69.3769 11.8097 70.2878 12.1447 71.4291 12.1447C72.2563 12.1447 72.9474 11.9615 73.5023 11.595C74.0573 11.2286 74.4342 10.7155 74.6332 10.0559L71.3035 10.0559L71.3035 8.13972ZM87.6087 12.6159C86.4989 13.7153 85.1481 14.265 83.5566 14.265C81.9651 14.265 80.6144 13.7153 79.5045 12.6159C78.405 11.4956 77.8553 10.1396 77.8553 8.54808C77.8553 6.94607 78.405 5.59536 79.5045 4.49594C80.6144 3.38605 81.9651 2.83111 83.5566 2.83111C85.1481 2.83111 86.4989 3.38605 87.6087 4.49594C88.7186 5.59536 89.2736 6.94607 89.2736 8.54808C89.2736 10.1501 88.7186 11.506 87.6087 12.6159ZM81.0279 11.1396C81.6981 11.8097 82.541 12.1447 83.5566 12.1447C84.5723 12.1447 85.4151 11.8097 86.0853 11.1396C86.7659 10.459 87.1062 9.59514 87.1062 8.54808C87.1062 7.50101 86.7659 6.63719 86.0853 5.95659C85.4047 5.276 84.5618 4.93571 83.5566 4.93571C82.5514 4.93571 81.7085 5.276 81.0279 5.95659C80.3474 6.63719 80.0071 7.50101 80.0071 8.54808C80.0071 9.59514 80.3474 10.459 81.0279 11.1396ZM96.0741 8.13972L101.587 8.13972V8.98785C101.587 10.5584 101.084 11.8306 100.079 12.8044C99.074 13.7782 97.7756 14.265 96.1841 14.265C94.4878 14.265 93.0795 13.7153 91.9592 12.6159C90.8493 11.506 90.2943 10.1553 90.2943 8.56378C90.2943 6.96178 90.844 5.60583 91.9435 4.49594C93.0534 3.38605 94.425 2.83111 96.0584 2.83111C97.0741 2.83111 98.006 3.06146 98.8541 3.52217C99.7022 3.98288 100.367 4.60588 100.849 5.39118L98.9954 6.45919C98.7337 6.00895 98.3358 5.64248 97.8018 5.35977C97.2678 5.07706 96.6814 4.93571 96.0427 4.93571C94.9852 4.93571 94.1214 5.28124 93.4512 5.9723C92.7811 6.64242 92.4461 7.50625 92.4461 8.56378C92.4461 9.60038 92.7864 10.459 93.4669 11.1396C94.1475 11.8097 95.0585 12.1447 96.1998 12.1447C97.027 12.1447 97.718 11.9615 98.273 11.595C98.8279 11.2286 99.2049 10.7155 99.4038 10.0559L96.0741 10.0559L96.0741 8.13972ZM112.379 12.6159C111.269 13.7153 109.919 14.265 108.327 14.265C106.736 14.265 105.385 13.7153 104.275 12.6159C103.176 11.4956 102.626 10.1396 102.626 8.54808C102.626 6.94607 103.176 5.59536 104.275 4.49594C105.385 3.38605 106.736 2.83111 108.327 2.83111C109.919 2.83111 111.269 3.38605 112.379 4.49594C113.489 5.59536 114.044 6.94607 114.044 8.54808C114.044 10.1501 113.489 11.506 112.379 12.6159ZM105.799 11.1396C106.469 11.8097 107.312 12.1447 108.327 12.1447C109.343 12.1447 110.186 11.8097 110.856 11.1396C111.536 10.459 111.877 9.59514 111.877 8.54808C111.877 7.50101 111.536 6.63719 110.856 5.95659C110.175 5.276 109.332 4.93571 108.327 4.93571C107.322 4.93571 106.479 5.276 105.799 5.95659C105.118 6.63719 104.778 7.50101 104.778 8.54808C104.778 9.59514 105.118 10.459 105.799 11.1396Z" fill="#FF7A00"/>
<path d="M59.4613 20.1188V19.1922L61.4874 19.1922L61.4874 27.0452L59.4613 27.0452V26.1185C58.854 26.8829 58.0007 27.265 56.9013 27.265C55.8542 27.265 54.9537 26.8672 54.1998 26.0714C53.4564 25.2652 53.0847 24.2809 53.0847 23.1187C53.0847 21.9669 53.4564 20.9879 54.1998 20.1817C54.9537 19.3754 55.8542 18.9723 56.9013 18.9723C58.0007 18.9723 58.854 19.3545 59.4613 20.1188ZM55.7233 24.7207C56.1317 25.129 56.65 25.3332 57.2782 25.3332C57.9064 25.3332 58.4247 25.129 58.8331 24.7207C59.2519 24.3019 59.4613 23.7679 59.4613 23.1187C59.4613 22.4695 59.2519 21.9407 58.8331 21.5324C58.4247 21.1135 57.9064 20.9041 57.2782 20.9041C56.65 20.9041 56.1317 21.1135 55.7233 21.5324C55.3149 21.9407 55.1108 22.4695 55.1108 23.1187C55.1108 23.7679 55.3149 24.3019 55.7233 24.7207ZM67.0626 27.265C65.8795 27.265 64.89 26.8672 64.0942 26.0714C63.3089 25.2756 62.9163 24.2914 62.9163 23.1187C62.9163 21.946 63.3089 20.9617 64.0942 20.166C64.89 19.3702 65.8795 18.9723 67.0626 18.9723C67.827 18.9723 68.5233 19.1555 69.1515 19.522C69.7798 19.8885 70.2562 20.3806 70.5808 20.9984L68.8374 22.0193C68.6804 21.6947 68.4395 21.4381 68.1149 21.2497C67.8008 21.0612 67.4448 20.967 67.0469 20.967C66.4396 20.967 65.937 21.1711 65.5392 21.5795C65.1413 21.9774 64.9423 22.4904 64.9423 23.1187C64.9423 23.726 65.1413 24.239 65.5392 24.6579C65.937 25.0557 66.4396 25.2547 67.0469 25.2547C67.4553 25.2547 67.8165 25.1657 68.1306 24.9877C68.4552 24.7992 68.6961 24.5427 68.8531 24.2181L70.6122 25.2233C70.2667 25.8515 69.7745 26.3489 69.1358 26.7153C68.5076 27.0818 67.8165 27.265 67.0626 27.265ZM77.5293 20.1188V19.1922L79.5554 19.1922L79.5554 27.0452L77.5293 27.0452V26.1185C76.922 26.8829 76.0687 27.265 74.9692 27.265C73.9222 27.265 73.0217 26.8672 72.2678 26.0714C71.5244 25.2652 71.1527 24.2809 71.1527 23.1187C71.1527 21.9669 71.5244 20.9879 72.2678 20.1817C73.0217 19.3754 73.9222 18.9723 74.9692 18.9723C76.0687 18.9723 76.922 19.3545 77.5293 20.1188ZM73.7913 24.7207C74.1997 25.129 74.7179 25.3332 75.3462 25.3332C75.9744 25.3332 76.4927 25.129 76.9011 24.7207C77.3199 24.3019 77.5293 23.7679 77.5293 23.1187C77.5293 22.4695 77.3199 21.9407 76.9011 21.5324C76.4927 21.1135 75.9744 20.9041 75.3462 20.9041C74.7179 20.9041 74.1997 21.1135 73.7913 21.5324C73.3829 21.9407 73.1788 22.4695 73.1788 23.1187C73.1788 23.7679 73.3829 24.3019 73.7913 24.7207ZM87.3452 20.1188V16.051L89.3712 16.051L89.3712 27.0452L87.3452 27.0452V26.1185C86.7484 26.8829 85.9002 27.265 84.8008 27.265C83.7433 27.265 82.8376 26.8672 82.0837 26.0714C81.3403 25.2652 80.9686 24.2809 80.9686 23.1187C80.9686 21.9669 81.3403 20.9879 82.0837 20.1817C82.8376 19.3754 83.7433 18.9723 84.8008 18.9723C85.9002 18.9723 86.7484 19.3545 87.3452 20.1188ZM83.6072 24.7207C84.0365 25.129 84.56 25.3332 85.1778 25.3332C85.806 25.3332 86.3243 25.129 86.7326 24.7207C87.141 24.3019 87.3452 23.7679 87.3452 23.1187C87.3452 22.4695 87.141 21.9407 86.7326 21.5324C86.3243 21.1135 85.806 20.9041 85.1778 20.9041C84.5495 20.9041 84.026 21.1135 83.6072 21.5324C83.1988 21.9407 82.9946 22.4695 82.9946 23.1187C82.9946 23.7679 83.1988 24.3019 83.6072 24.7207ZM98.8573 23.9511L92.9361 23.9511C93.1979 24.9353 93.9361 25.4275 95.1507 25.4275C95.9255 25.4275 96.5119 25.1657 96.9097 24.6422L98.5432 25.5845C97.7683 26.7049 96.627 27.265 95.1193 27.265C93.8209 27.265 92.7791 26.8724 91.9938 26.0871C91.2085 25.3018 90.8158 24.3123 90.8158 23.1187C90.8158 21.946 91.2032 20.9617 91.9781 20.166C92.7424 19.3702 93.7371 18.9723 94.9622 18.9723C96.1244 18.9723 97.072 19.3702 97.805 20.166C98.5589 20.9617 98.9358 21.946 98.9358 23.1187C98.9358 23.3386 98.9096 23.616 98.8573 23.9511ZM92.9047 22.3805L96.9097 22.3805C96.7946 21.8674 96.559 21.4748 96.203 21.2025C95.8574 20.9303 95.4439 20.7942 94.9622 20.7942C94.4177 20.7942 93.9675 20.9355 93.6115 21.2183C93.2555 21.4905 93.0199 21.8779 92.9047 22.3805ZM109.036 18.9723C109.936 18.9723 110.653 19.2655 111.187 19.8518C111.732 20.4382 112.004 21.2235 112.004 22.2077L112.004 27.0452L109.978 27.0452L109.978 22.3491C109.978 21.8779 109.863 21.5114 109.632 21.2497C109.402 20.9879 109.077 20.857 108.659 20.857C108.198 20.857 107.837 21.0088 107.575 21.3125C107.324 21.6161 107.198 22.0559 107.198 22.6318L107.198 27.0452L105.172 27.0452L105.172 22.3491C105.172 21.8779 105.057 21.5114 104.826 21.2497C104.596 20.9879 104.271 20.857 103.853 20.857C103.402 20.857 103.041 21.0141 102.769 21.3282C102.507 21.6318 102.376 22.0664 102.376 22.6318L102.376 27.0452L100.35 27.0452L100.35 19.1922L102.376 19.1922V20.0246C102.847 19.3231 103.575 18.9723 104.559 18.9723C105.533 18.9723 106.245 19.3492 106.695 20.1031C107.208 19.3492 107.989 18.9723 109.036 18.9723ZM116.933 24.4694L118.676 19.1922L120.844 19.1922L117.985 27.0452C117.577 28.176 117.032 28.9927 116.352 29.4953C115.682 30.0084 114.844 30.2387 113.839 30.1864L113.839 28.3016C114.373 28.3121 114.802 28.1969 115.127 27.9561C115.451 27.7153 115.708 27.3279 115.896 26.7939L112.677 19.1922L114.891 19.1922L116.933 24.4694Z" fill="#009B95"/>
</svg>
